PathFileType  4	(X/Y/Z) C:\Users\antoi\Documents\MyRepositories\mobilecap\ResultsAnalysis
DataRate	CameraRate	NumFrames	NumMarkers	Units	OrigDataRate	OrigDataStartFrame	OrigNumFrames
100.0	100.0	4	51	mm	100.0	31	247
Frame#	Time	r_knee			r_shank_antsup			r_ankle			r_calc			r_5meta			r_toe			L_knee			L_shank_antsup			L_ankle			L_calc			L_5meta			L_toe			r_sh2			r_sh3			r_sh4			L_sh2			L_sh3			r_thigh1			r_thigh2			r_thigh3			r_thigh4			r_thigh5			L_thigh1			L_thigh2			L_thigh3			L_thigh4			r.ASIS			r.PSIS			L.ASIS			L.PSIS			C7			R_Shoulder			L_Shoulder			R_Sternum			L_Sternum			R_humerus			R_elbow_med			R_elbow_lat			R_forearm			R_wrist_radius			R_wrist_ulna			L_humerus			L_elbow_med			L_elbow_lat			L_forearm			L_wrist_radius			L_wrist_ulna			R_HJC			L_HJC			R_HJC_reg			L_HJC_reg			
		X1	Y1	Z1	X2	Y2	Z2	X3	Y3	Z3	X4	Y4	Z4	X5	Y5	Z5	X6	Y6	Z6	X7	Y7	Z7	X8	Y8	Z8	X9	Y9	Z9	X10	Y10	Z10	X11	Y11	Z11	X12	Y12	Z12	X13	Y13	Z13	X14	Y14	Z14	X15	Y15	Z15	X16	Y16	Z16	X17	Y17	Z17	X18	Y18	Z18	X19	Y19	Z19	X20	Y20	Z20	X21	Y21	Z21	X22	Y22	Z22	X23	Y23	Z23	X24	Y24	Z24	X25	Y25	Z25	X26	Y26	Z26	X27	Y27	Z27	X28	Y28	Z28	X29	Y29	Z29	X30	Y30	Z30	X31	Y31	Z31	X32	Y32	Z32	X33	Y33	Z33	X34	Y34	Z34	X35	Y35	Z35	X36	Y36	Z36	X37	Y37	Z37	X38	Y38	Z38	X39	Y39	Z39	X40	Y40	Z40	X41	Y41	Z41	X42	Y42	Z42	X43	Y43	Z43	X44	Y44	Z44	X45	Y45	Z45	X46	Y46	Z46	X47	Y47	Z47	X48	Y48	Z48	X49	Y49	Z49	X50	Y50	Z50	X51	Y51	Z51	

31	0.30000000	-1140.51746	900.05362	-403.16904	-1146.29975	747.88708	-407.22277	-1297.23249	411.37023	-404.07815	-1358.24562	382.66752	-465.76425	-1164.81084	349.23356	-372.89647	-1127.39617	375.95038	-424.95679	-1160.93083	898.83172	-750.66557	-1157.48299	693.79987	-731.21805	-1309.05614	422.49089	-731.88245	-1368.17351	384.58980	-665.46223	-1175.61848	344.60609	-774.87894	-1131.69754	376.09205	-718.41282	-1179.50507	639.81681	-411.21044	-1206.92710	764.10110	-366.49054	-1243.74183	658.56171	-360.72819	-1223.16817	721.69395	-783.74262	-1264.25198	610.24871	-766.78442	-1117.48529	1196.41445	-379.66438	-1096.59378	1084.99162	-383.63757	-1155.14330	1051.02010	-371.61845	-1228.05417	1176.53228	-397.87446	-1207.45887	1060.07510	-390.16005	-1112.88321	1195.90127	-761.63128	-1106.37533	1060.42495	-755.14586	-1222.70986	1193.80726	-769.07352	-1213.45737	1056.07138	-774.53402	-1076.47427	1456.69866	-451.82853	-1254.55071	1527.96400	-524.64104	-1103.68365	1442.98824	-714.57485	-1262.11216	1529.16056	-616.23933	-1063.75693	1983.09492	-599.55213	-990.45705	1930.13774	-429.28957	-1019.88298	1944.77681	-775.34838	-946.00236	1866.21202	-577.51968	-948.36540	1867.75756	-631.11017	-1131.77909	1728.90466	-308.15784	-1272.56835	1667.33130	-326.77374	-1244.99385	1697.68929	-257.30756	-1192.24855	1489.75063	-215.27623	-1174.10039	1400.30815	-208.79792	-1200.04969	1404.54831	-181.54239	-1170.52634	1719.54954	-887.22776	-1290.13602	1694.74680	-843.99424	-1269.21424	1694.45596	-923.78117	-1232.58651	1491.93998	-963.03832	-1218.72877	1418.29195	-963.34129	-1243.54883	1420.06948	-983.36671	-1178.03831	1382.49924	-473.00233	-1201.51350	1378.21181	-669.03088	-1166.76716	1385.74786	-482.78323	-1181.12731	1388.01605	-656.75375	
32	0.31000000	-1136.82242	899.06333	-403.14527	-1143.44015	747.03864	-406.93132	-1296.94892	411.71621	-404.07468	-1358.10511	383.03802	-465.73759	-1164.73959	349.21441	-372.92648	-1127.26213	375.77246	-425.13179	-1158.96846	898.12105	-750.88571	-1156.43917	692.98330	-731.40227	-1308.98265	422.52841	-732.03839	-1368.27301	384.52545	-665.54556	-1175.67040	344.64696	-774.90472	-1131.74654	376.13002	-718.41196	-1177.38677	639.45743	-411.34711	-1203.97303	763.81854	-366.08189	-1241.87192	658.77852	-360.28207	-1221.71021	721.19881	-783.76319	-1263.37050	610.04875	-766.85612	-1116.44314	1195.59247	-379.66422	-1094.16517	1084.51671	-383.84400	-1152.50760	1049.84102	-371.48311	-1226.66599	1174.59011	-397.20091	-1204.83496	1058.40397	-389.92421	-1112.84813	1195.17757	-761.32325	-1105.26460	1059.95962	-755.05209	-1222.57989	1192.15657	-769.33924	-1212.26533	1054.89738	-774.50860	-1076.62139	1454.85282	-451.98933	-1253.66227	1528.07247	-524.82232	-1104.18531	1440.71085	-715.18070	-1261.52580	1529.32200	-615.47904	-1057.13512	1980.24998	-600.21552	-984.07234	1926.77455	-430.23618	-1013.91522	1941.35389	-776.11660	-940.73702	1862.08846	-578.26633	-943.10623	1863.63977	-631.75721	-1126.05381	1726.07477	-308.74651	-1267.21890	1664.51319	-327.10129	-1238.91588	1695.05556	-257.22164	-1183.68351	1487.88206	-216.15075	-1164.00646	1399.03844	-209.99038	-1189.96286	1402.59175	-182.69434	-1164.95802	1716.55237	-888.05194	-1284.92730	1691.65026	-844.95988	-1263.58234	1691.45871	-924.93010	-1222.31393	1489.32974	-962.14791	-1206.53805	1416.37701	-962.13791	-1231.36761	1417.08822	-981.71912	-1178.92881	1381.78371	-472.84422	-1202.95279	1377.44069	-668.80596	-1167.48898	1384.52323	-482.65206	-1182.60175	1386.92429	-656.88757	
33	0.32000000	-1132.60153	898.16595	-402.59296	-1140.22437	746.08223	-406.69932	-1296.54954	412.16459	-403.98173	-1357.86038	383.56530	-465.58043	-1164.58842	349.19571	-372.93423	-1127.04140	375.51806	-425.33135	-1156.69165	897.38933	-751.09099	-1154.90923	692.15354	-731.35944	-1308.78836	422.57982	-732.19009	-1368.32118	384.48524	-665.63487	-1175.67935	344.65018	-774.88828	-1131.76819	376.16429	-718.39739	-1175.03536	638.99100	-411.44215	-1200.61515	763.21795	-365.84636	-1239.45828	658.58880	-359.83471	-1220.05001	720.54929	-783.72795	-1262.16833	609.76779	-767.00996	-1115.30090	1194.69679	-379.58693	-1091.59879	1083.84311	-383.82733	-1149.54595	1048.54636	-371.18674	-1225.29802	1172.99870	-396.37370	-1201.97811	1056.53665	-389.52459	-1112.49749	1194.49228	-761.23489	-1104.05502	1059.44843	-755.04310	-1222.04203	1191.02138	-769.52734	-1210.95429	1053.54730	-774.44188	-1077.21052	1452.46848	-451.69436	-1253.04458	1527.77268	-524.74206	-1104.69170	1438.32023	-715.75498	-1260.94055	1529.10562	-615.24375	-1050.59044	1977.02888	-600.83365	-977.88698	1923.12087	-431.41792	-1007.91320	1937.52783	-776.81824	-935.45375	1857.98996	-578.92432	-937.88013	1859.33439	-632.45152	-1120.13390	1722.65187	-309.52718	-1261.56594	1661.06973	-327.57355	-1233.00576	1691.69647	-257.66731	-1174.49702	1485.51697	-217.27156	-1153.14066	1397.18343	-211.60180	-1179.13233	1400.20565	-184.00840	-1159.02276	1712.73130	-888.51353	-1279.32913	1687.78145	-846.04301	-1257.51565	1687.60741	-926.03720	-1211.32374	1486.10237	-960.94857	-1193.67517	1413.62188	-959.93642	-1218.31281	1413.66679	-980.08641	-1180.25093	1380.58111	-472.78644	-1204.36154	1376.45619	-668.74209	-1168.82801	1382.88778	-482.44754	-1184.07558	1385.46085	-657.23454	
34	0.33000000	-1128.02658	897.18192	-401.84754	-1136.69425	744.98423	-406.49353	-1296.09712	412.66790	-403.89353	-1357.58052	384.13590	-465.34768	-1164.42835	349.18636	-372.90278	-1126.83341	375.27873	-425.49278	-1154.16315	896.56497	-751.24005	-1153.17193	691.21616	-731.29780	-1308.57456	422.55843	-732.22794	-1368.34617	384.47914	-665.70243	-1175.67184	344.67234	-774.84934	-1131.78265	376.17329	-718.34500	-1172.55440	638.24903	-411.36554	-1196.96754	762.44205	-365.77381	-1236.73395	658.19478	-359.48659	-1218.05844	719.90438	-783.84835	-1260.68689	609.36887	-767.22527	-1113.97817	1193.66198	-379.49067	-1088.83527	1082.91902	-383.61382	-1146.35223	1047.14827	-370.76606	-1223.92174	1171.43433	-395.46873	-1198.98567	1054.50974	-389.01738	-1111.73437	1194.25332	-761.16542	-1102.72698	1058.78686	-755.05818	-1221.64811	1189.55298	-769.45256	-1209.48170	1052.06302	-774.50197	-1077.77992	1449.75901	-451.34641	-1252.61216	1526.75046	-524.50807	-1105.19469	1435.81943	-716.28985	-1260.39414	1528.03878	-616.06373	-1044.00722	1973.46149	-601.46214	-971.72068	1919.04960	-432.45530	-1001.84159	1933.34802	-777.41089	-930.09224	1853.63498	-579.51670	-932.68722	1854.76117	-633.36034	-1114.06370	1718.71124	-310.31913	-1255.63561	1656.98561	-328.13960	-1226.95446	1687.87138	-258.15808	-1164.67809	1482.62556	-218.84136	-1141.58412	1394.80479	-213.51052	-1167.56248	1397.24483	-185.70364	-1152.68455	1707.98908	-888.80765	-1273.40659	1683.08868	-847.30964	-1251.00356	1682.90605	-927.26295	-1199.60224	1482.31033	-959.58148	-1180.28603	1410.12255	-956.85199	-1204.44280	1409.61234	-978.15614	-1181.45697	1378.84179	-472.96801	-1205.38634	1374.92229	-668.95010	-1170.24929	1380.98901	-482.32064	-1185.15951	1383.45764	-657.70756	
